<?xml version="1.0" encoding="UTF-8"?>
<svg width="430" height="932" viewBox="0 0 430 932" fill="none" xmlns="http://www.w3.org/2000/svg">

  <!-- Phone background -->
  <rect width="430" height="932" rx="50" fill="#0B1929"/>
  <rect x="151" y="14" width="128" height="34" rx="17" fill="#060D18"/>

  <!-- Status bar -->
  <text x="34" y="37" fill="#F0F4FF" font-size="14" font-family="system-ui,-apple-system,sans-serif" font-weight="600">9:41</text>
  <path d="M348 33 Q353 27 358 33" stroke="#F0F4FF" stroke-width="1.5" fill="none" stroke-linecap="round"/>
  <path d="M344 37 Q353 22 362 37" stroke="#F0F4FF" stroke-width="1.5" fill="none" stroke-linecap="round"/>
  <circle cx="353" cy="39" r="2" fill="#F0F4FF"/>
  <rect x="370" y="26" width="26" height="13" rx="3" stroke="#F0F4FF" stroke-width="1.5" fill="none"/>
  <rect x="371.5" y="27.5" width="20" height="10" rx="2" fill="#F0F4FF"/>

  <!-- Mini sticky header (scrolled state) -->
  <rect x="0" y="52" width="430" height="46" fill="#0B1929"/>
  <line x1="0" y1="98" x2="430" y2="98" stroke="#1B3156" stroke-width="1"/>
  <text x="28" y="81" fill="#8899B0" font-size="14" font-family="system-ui,-apple-system,sans-serif">Mittwoch, 1. April · Heute</text>
  <!-- 3-Punkte-Menü (vor ↑ Plan) -->
  <circle cx="352" cy="81" r="2" fill="#4A6080"/>
  <circle cx="359" cy="81" r="2" fill="#4A6080"/>
  <circle cx="366" cy="81" r="2" fill="#4A6080"/>
  <text x="402" y="81" fill="#2966D8" font-size="13" font-family="system-ui,-apple-system,sans-serif" text-anchor="end">↑ Plan</text>

  <!-- SECTION: Tagesnotiz -->
  <text x="28" y="133" fill="#F0F4FF" font-size="19" font-family="system-ui,-apple-system,sans-serif" font-weight="700">Tagesnotiz</text>

  <!-- Notes card -->
  <rect x="28" y="146" width="374" height="175" rx="20" fill="#122035"/>
  <text x="48" y="177" fill="#F0F4FF" font-size="13" font-family="system-ui,-apple-system,sans-serif" font-weight="600">Was lief heute gut?</text>
  <text x="48" y="200" fill="#8899B0" font-size="12.5" font-family="system-ui,-apple-system,sans-serif">Morgenroutine perfekt eingehalten. Training</text>
  <text x="48" y="219" fill="#8899B0" font-size="12.5" font-family="system-ui,-apple-system,sans-serif">war intensiv und energiereich.</text>
  <line x1="48" y1="234" x2="382" y2="234" stroke="#1B3156" stroke-width="1"/>
  <text x="48" y="256" fill="#F0F4FF" font-size="13" font-family="system-ui,-apple-system,sans-serif" font-weight="600">Was will ich morgen besser machen?</text>
  <text x="48" y="278" fill="#8899B0" font-size="12.5" font-family="system-ui,-apple-system,sans-serif">Weniger Ablenkung am Vormittag.</text>
  <rect x="48" y="292" width="2" height="14" rx="1" fill="#2966D8" fill-opacity="0.8"/>

  <!-- SECTION: Stimmung -->
  <text x="28" y="354" fill="#F0F4FF" font-size="17" font-family="system-ui,-apple-system,sans-serif" font-weight="700">Stimmung heute</text>
  <text x="28" y="374" fill="#465970" font-size="12" font-family="system-ui,-apple-system,sans-serif">😔  1 = schlecht  ·  10 = super  😊</text>

  <!-- 10 circles cy=410 -->
  <circle cx="47" cy="410" r="16" stroke="#1B3156" stroke-width="1.5" fill="none"/>
  <text x="47" y="415" fill="#465970" font-size="11.5" text-anchor="middle" font-family="system-ui,-apple-system,sans-serif">1</text>
  <circle cx="84" cy="410" r="16" stroke="#1B3156" stroke-width="1.5" fill="none"/>
  <text x="84" y="415" fill="#465970" font-size="11.5" text-anchor="middle" font-family="system-ui,-apple-system,sans-serif">2</text>
  <circle cx="122" cy="410" r="16" stroke="#1B3156" stroke-width="1.5" fill="none"/>
  <text x="122" y="415" fill="#465970" font-size="11.5" text-anchor="middle" font-family="system-ui,-apple-system,sans-serif">3</text>
  <circle cx="159" cy="410" r="16" stroke="#1B3156" stroke-width="1.5" fill="none"/>
  <text x="159" y="415" fill="#465970" font-size="11.5" text-anchor="middle" font-family="system-ui,-apple-system,sans-serif">4</text>
  <circle cx="197" cy="410" r="16" stroke="#1B3156" stroke-width="1.5" fill="none"/>
  <text x="197" y="415" fill="#465970" font-size="11.5" text-anchor="middle" font-family="system-ui,-apple-system,sans-serif">5</text>
  <circle cx="234" cy="410" r="16" stroke="#1B3156" stroke-width="1.5" fill="none"/>
  <text x="234" y="415" fill="#465970" font-size="11.5" text-anchor="middle" font-family="system-ui,-apple-system,sans-serif">6</text>
  <!-- 7 = SELECTED -->
  <circle cx="271" cy="410" r="16" fill="#2966D8"/>
  <text x="271" y="415" fill="white" font-size="11.5" text-anchor="middle" font-family="system-ui,-apple-system,sans-serif" font-weight="700">7</text>
  <circle cx="309" cy="410" r="16" stroke="#1B3156" stroke-width="1.5" fill="none"/>
  <text x="309" y="415" fill="#465970" font-size="11.5" text-anchor="middle" font-family="system-ui,-apple-system,sans-serif">8</text>
  <circle cx="346" cy="410" r="16" stroke="#1B3156" stroke-width="1.5" fill="none"/>
  <text x="346" y="415" fill="#465970" font-size="11.5" text-anchor="middle" font-family="system-ui,-apple-system,sans-serif">9</text>
  <circle cx="383" cy="410" r="16" stroke="#1B3156" stroke-width="1.5" fill="none"/>
  <text x="383" y="415" fill="#465970" font-size="11" text-anchor="middle" font-family="system-ui,-apple-system,sans-serif">10</text>

  <!-- SECTION: Motivation -->
  <text x="28" y="460" fill="#F0F4FF" font-size="17" font-family="system-ui,-apple-system,sans-serif" font-weight="700">Motivation heute</text>
  <text x="28" y="480" fill="#465970" font-size="12" font-family="system-ui,-apple-system,sans-serif">😴  1 = kaum  ·  10 = sehr  ⚡</text>

  <!-- cy=516, 8 = SELECTED -->
  <circle cx="47" cy="516" r="16" stroke="#1B3156" stroke-width="1.5" fill="none"/>
  <text x="47" y="521" fill="#465970" font-size="11.5" text-anchor="middle" font-family="system-ui,-apple-system,sans-serif">1</text>
  <circle cx="84" cy="516" r="16" stroke="#1B3156" stroke-width="1.5" fill="none"/>
  <text x="84" y="521" fill="#465970" font-size="11.5" text-anchor="middle" font-family="system-ui,-apple-system,sans-serif">2</text>
  <circle cx="122" cy="516" r="16" stroke="#1B3156" stroke-width="1.5" fill="none"/>
  <text x="122" y="521" fill="#465970" font-size="11.5" text-anchor="middle" font-family="system-ui,-apple-system,sans-serif">3</text>
  <circle cx="159" cy="516" r="16" stroke="#1B3156" stroke-width="1.5" fill="none"/>
  <text x="159" y="521" fill="#465970" font-size="11.5" text-anchor="middle" font-family="system-ui,-apple-system,sans-serif">4</text>
  <circle cx="197" cy="516" r="16" stroke="#1B3156" stroke-width="1.5" fill="none"/>
  <text x="197" y="521" fill="#465970" font-size="11.5" text-anchor="middle" font-family="system-ui,-apple-system,sans-serif">5</text>
  <circle cx="234" cy="516" r="16" stroke="#1B3156" stroke-width="1.5" fill="none"/>
  <text x="234" y="521" fill="#465970" font-size="11.5" text-anchor="middle" font-family="system-ui,-apple-system,sans-serif">6</text>
  <circle cx="271" cy="516" r="16" stroke="#1B3156" stroke-width="1.5" fill="none"/>
  <text x="271" y="521" fill="#465970" font-size="11.5" text-anchor="middle" font-family="system-ui,-apple-system,sans-serif">7</text>
  <!-- 8 = SELECTED -->
  <circle cx="309" cy="516" r="16" fill="#2966D8"/>
  <text x="309" y="521" fill="white" font-size="11.5" text-anchor="middle" font-family="system-ui,-apple-system,sans-serif" font-weight="700">8</text>
  <circle cx="346" cy="516" r="16" stroke="#1B3156" stroke-width="1.5" fill="none"/>
  <text x="346" y="521" fill="#465970" font-size="11.5" text-anchor="middle" font-family="system-ui,-apple-system,sans-serif">9</text>
  <circle cx="383" cy="516" r="16" stroke="#1B3156" stroke-width="1.5" fill="none"/>
  <text x="383" y="521" fill="#465970" font-size="11" text-anchor="middle" font-family="system-ui,-apple-system,sans-serif">10</text>

  <!-- Save button -->
  <rect x="28" y="554" width="374" height="52" rx="26" fill="#2966D8"/>
  <text x="215" y="585" fill="white" font-size="16" text-anchor="middle" font-weight="600" font-family="system-ui,-apple-system,sans-serif">Speichern</text>

  <!-- Summary preview -->
  <rect x="28" y="628" width="374" height="88" rx="20" fill="#122035"/>
  <text x="48" y="656" fill="#8899B0" font-size="12" font-family="system-ui,-apple-system,sans-serif">Gestrige Werte</text>
  <text x="48" y="680" fill="#F0F4FF" font-size="14" font-family="system-ui,-apple-system,sans-serif" font-weight="600">Stimmung  <tspan fill="#6BA3F5">8</tspan>   Motivation  <tspan fill="#6BA3F5">9</tspan></text>
  <text x="48" y="703" fill="#465970" font-size="12" font-family="system-ui,-apple-system,sans-serif">Dienstag war ein starker Tag!</text>

  <!-- ═══ BOTTOM NAV – 5 Items ═══ -->
  <rect x="0" y="856" width="430" height="76" fill="#070E1B"/>
  <line x1="0" y1="856" x2="430" y2="856" stroke="#1B3156" stroke-width="1"/>
  <rect x="160" y="914" width="110" height="4" rx="2" fill="#1B3156"/>

  <!-- Monat (x=43) inaktiv -->
  <rect x="32" y="866" width="22" height="20" rx="3" stroke="#4A6080" stroke-width="1.5" fill="none"/>
  <line x1="37" y1="863" x2="37" y2="869" stroke="#4A6080" stroke-width="1.5" stroke-linecap="round"/>
  <line x1="49" y1="863" x2="49" y2="869" stroke="#4A6080" stroke-width="1.5" stroke-linecap="round"/>
  <line x1="32" y1="872" x2="54" y2="872" stroke="#4A6080" stroke-width="0.8"/>
  <circle cx="37" cy="877" r="1.4" fill="#4A6080"/><circle cx="43" cy="877" r="1.4" fill="#4A6080"/><circle cx="49" cy="877" r="1.4" fill="#4A6080"/>
  <circle cx="37" cy="882" r="1.4" fill="#4A6080"/><circle cx="43" cy="882" r="1.4" fill="#4A6080"/><circle cx="49" cy="882" r="1.4" fill="#4A6080"/>
  <text x="43" y="898" fill="#4A6080" font-size="9.5" text-anchor="middle" font-family="system-ui,-apple-system,sans-serif">Monat</text>

  <!-- Woche (x=129) inaktiv – 7 Balken -->
  <rect x="112" y="876" width="3.5" height="9" rx="1.5" fill="#4A6080"/>
  <rect x="117" y="872" width="3.5" height="13" rx="1.5" fill="#4A6080"/>
  <rect x="122" y="874" width="3.5" height="11" rx="1.5" fill="#4A6080"/>
  <rect x="127" y="869" width="3.5" height="16" rx="1.5" fill="#4A6080"/>
  <rect x="132" y="873" width="3.5" height="12" rx="1.5" fill="#4A6080"/>
  <rect x="137" y="876" width="3.5" height="9" rx="1.5" fill="#4A6080"/>
  <rect x="142" y="878" width="3.5" height="7" rx="1.5" fill="#4A6080"/>
  <text x="129" y="898" fill="#4A6080" font-size="9.5" text-anchor="middle" font-family="system-ui,-apple-system,sans-serif">Woche</text>

  <!-- Tag (x=215) AKTIV -->
  <rect x="196" y="858" width="38" height="34" rx="20" fill="#2966D8" fill-opacity="0.2"/>
  <rect x="203" y="865" width="24" height="22" rx="4" stroke="#2966D8" stroke-width="1.5" fill="none"/>
  <line x1="209" y1="862" x2="209" y2="867" stroke="#2966D8" stroke-width="1.5" stroke-linecap="round"/>
  <line x1="221" y1="862" x2="221" y2="867" stroke="#2966D8" stroke-width="1.5" stroke-linecap="round"/>
  <line x1="203" y1="872" x2="227" y2="872" stroke="#2966D8" stroke-width="1"/>
  <rect x="208" y="875" width="10" height="9" rx="2.5" fill="#2966D8"/>
  <text x="215" y="898" fill="#2966D8" font-size="9.5" text-anchor="middle" font-family="system-ui,-apple-system,sans-serif" font-weight="700">Tag</text>

  <!-- Ziele (x=301) inaktiv – Flagge -->
  <line x1="291" y1="864" x2="291" y2="887" stroke="#4A6080" stroke-width="1.5" stroke-linecap="round"/>
  <path d="M291 864 L304 869 L291 874 Z" fill="#4A6080"/>
  <text x="301" y="898" fill="#4A6080" font-size="9.5" text-anchor="middle" font-family="system-ui,-apple-system,sans-serif">Ziele</text>

  <!-- Statistiken (x=387) inaktiv – 4 aufsteigende Balken -->
  <rect x="376" y="880" width="4" height="6" rx="1.5" fill="#4A6080"/>
  <rect x="382" y="875" width="4" height="11" rx="1.5" fill="#4A6080"/>
  <rect x="388" y="877" width="4" height="9" rx="1.5" fill="#4A6080"/>
  <rect x="394" y="872" width="4" height="14" rx="1.5" fill="#4A6080"/>
  <text x="387" y="898" fill="#4A6080" font-size="9.5" text-anchor="middle" font-family="system-ui,-apple-system,sans-serif">Statistik</text>

</svg>
