<?xml version="1.0" encoding="UTF-8"?>
<svg width="430" height="932" viewBox="0 0 430 932" fill="none" xmlns="http://www.w3.org/2000/svg">

  <rect width="430" height="932" rx="50" fill="#0B1929"/>
  <rect x="151" y="14" width="128" height="34" rx="17" fill="#060D18"/>

  <!-- Status bar -->
  <text x="34" y="37" fill="#F0F4FF" font-size="14" font-family="system-ui,-apple-system,sans-serif" font-weight="600">9:41</text>
  <path d="M348 33 Q353 27 358 33" stroke="#F0F4FF" stroke-width="1.5" fill="none" stroke-linecap="round"/>
  <path d="M344 37 Q353 22 362 37" stroke="#F0F4FF" stroke-width="1.5" fill="none" stroke-linecap="round"/>
  <circle cx="353" cy="39" r="2" fill="#F0F4FF"/>
  <rect x="370" y="26" width="26" height="13" rx="3" stroke="#F0F4FF" stroke-width="1.5" fill="none"/>
  <rect x="371.5" y="27.5" width="20" height="10" rx="2" fill="#F0F4FF"/>

  <!-- 3-Punkte-Menü -->
  <circle cx="393" cy="75" r="2.5" fill="#4A6080"/>
  <circle cx="401" cy="75" r="2.5" fill="#4A6080"/>
  <circle cx="409" cy="75" r="2.5" fill="#4A6080"/>

  <!-- Header -->
  <text x="28" y="82" fill="#8899B0" font-size="15" font-family="system-ui,-apple-system,sans-serif">Monatsübersicht</text>
  <text x="28" y="124" fill="#F0F4FF" font-size="38" font-family="system-ui,-apple-system,sans-serif" font-weight="700">April 2026</text>
  <!-- Navigation arrows -->
  <text x="370" y="110" fill="#465970" font-size="22" text-anchor="middle" font-family="system-ui,-apple-system,sans-serif">‹</text>
  <text x="402" y="110" fill="#F0F4FF" font-size="22" text-anchor="middle" font-family="system-ui,-apple-system,sans-serif">›</text>

  <!-- Calendar grid -->
  <!-- Day headers -->
  <text x="55" y="160" fill="#465970" font-size="12" text-anchor="middle" font-family="system-ui,-apple-system,sans-serif">Mo</text>
  <text x="108" y="160" fill="#465970" font-size="12" text-anchor="middle" font-family="system-ui,-apple-system,sans-serif">Di</text>
  <text x="162" y="160" fill="#465970" font-size="12" text-anchor="middle" font-family="system-ui,-apple-system,sans-serif">Mi</text>
  <text x="215" y="160" fill="#465970" font-size="12" text-anchor="middle" font-family="system-ui,-apple-system,sans-serif">Do</text>
  <text x="268" y="160" fill="#465970" font-size="12" text-anchor="middle" font-family="system-ui,-apple-system,sans-serif">Fr</text>
  <text x="322" y="160" fill="#465970" font-size="12" text-anchor="middle" font-family="system-ui,-apple-system,sans-serif">Sa</text>
  <text x="375" y="160" fill="#465970" font-size="12" text-anchor="middle" font-family="system-ui,-apple-system,sans-serif">So</text>

  <!-- Row 1: -, -, 1(heute), 2, 3, 4, 5 -->
  <!-- 1 = TODAY = Mi, cx=162 (HIGHLIGHTED) -->
  <circle cx="162" cy="196" r="20" fill="#2966D8"/>
  <text x="162" y="201" fill="white" font-size="14" text-anchor="middle" font-family="system-ui,-apple-system,sans-serif" font-weight="700">1</text>
  <!-- 2 = Do – geplant -->
  <text x="215" y="201" fill="#8899B0" font-size="14" text-anchor="middle" font-family="system-ui,-apple-system,sans-serif">2</text>
  <circle cx="215" cy="211" r="3" fill="#2966D8" fill-opacity="0.5"/>
  <!-- 3 = Fr – geplant -->
  <text x="268" y="201" fill="#8899B0" font-size="14" text-anchor="middle" font-family="system-ui,-apple-system,sans-serif">3</text>
  <circle cx="268" cy="211" r="3" fill="#2966D8" fill-opacity="0.4"/>
  <!-- 4 = Sa -->
  <text x="322" y="201" fill="#8899B0" font-size="14" text-anchor="middle" font-family="system-ui,-apple-system,sans-serif">4</text>
  <!-- 5 = So -->
  <text x="375" y="201" fill="#8899B0" font-size="14" text-anchor="middle" font-family="system-ui,-apple-system,sans-serif">5</text>

  <!-- Row 2: 6-12 -->
  <text x="55" y="257" fill="#8899B0" font-size="14" text-anchor="middle" font-family="system-ui,-apple-system,sans-serif">6</text>
  <circle cx="55" cy="267" r="3" fill="#22C55E" fill-opacity="0.9"/>
  <text x="108" y="257" fill="#8899B0" font-size="14" text-anchor="middle" font-family="system-ui,-apple-system,sans-serif">7</text>
  <circle cx="108" cy="267" r="3" fill="#22C55E" fill-opacity="0.9"/>
  <text x="162" y="257" fill="#8899B0" font-size="14" text-anchor="middle" font-family="system-ui,-apple-system,sans-serif">8</text>
  <circle cx="162" cy="267" r="3" fill="#F59E0B" fill-opacity="0.9"/>
  <text x="215" y="257" fill="#8899B0" font-size="14" text-anchor="middle" font-family="system-ui,-apple-system,sans-serif">9</text>
  <circle cx="215" cy="267" r="3" fill="#2966D8" fill-opacity="0.5"/>
  <text x="268" y="257" fill="#8899B0" font-size="14" text-anchor="middle" font-family="system-ui,-apple-system,sans-serif">10</text>
  <text x="322" y="257" fill="#8899B0" font-size="14" text-anchor="middle" font-family="system-ui,-apple-system,sans-serif">11</text>
  <text x="375" y="257" fill="#8899B0" font-size="14" text-anchor="middle" font-family="system-ui,-apple-system,sans-serif">12</text>

  <!-- Row 3: 13-19 -->
  <text x="55" y="313" fill="#8899B0" font-size="14" text-anchor="middle" font-family="system-ui,-apple-system,sans-serif">13</text>
  <circle cx="55" cy="323" r="3" fill="#EF4444" fill-opacity="0.9"/>
  <text x="108" y="313" fill="#8899B0" font-size="14" text-anchor="middle" font-family="system-ui,-apple-system,sans-serif">14</text>
  <circle cx="108" cy="323" r="3" fill="#22C55E" fill-opacity="0.9"/>
  <text x="162" y="313" fill="#8899B0" font-size="14" text-anchor="middle" font-family="system-ui,-apple-system,sans-serif">15</text>
  <circle cx="162" cy="323" r="3" fill="#8B5CF6" fill-opacity="0.9"/>
  <text x="215" y="313" fill="#8899B0" font-size="14" text-anchor="middle" font-family="system-ui,-apple-system,sans-serif">16</text>
  <circle cx="215" cy="323" r="3" fill="#22C55E" fill-opacity="0.9"/>
  <text x="268" y="313" fill="#8899B0" font-size="14" text-anchor="middle" font-family="system-ui,-apple-system,sans-serif">17</text>
  <text x="322" y="313" fill="#8899B0" font-size="14" text-anchor="middle" font-family="system-ui,-apple-system,sans-serif">18</text>
  <text x="375" y="313" fill="#8899B0" font-size="14" text-anchor="middle" font-family="system-ui,-apple-system,sans-serif">19</text>

  <!-- Row 4: 20-26 -->
  <text x="55" y="369" fill="#8899B0" font-size="14" text-anchor="middle" font-family="system-ui,-apple-system,sans-serif">20</text>
  <text x="108" y="369" fill="#8899B0" font-size="14" text-anchor="middle" font-family="system-ui,-apple-system,sans-serif">21</text>
  <text x="162" y="369" fill="#8899B0" font-size="14" text-anchor="middle" font-family="system-ui,-apple-system,sans-serif">22</text>
  <text x="215" y="369" fill="#8899B0" font-size="14" text-anchor="middle" font-family="system-ui,-apple-system,sans-serif">23</text>
  <text x="268" y="369" fill="#8899B0" font-size="14" text-anchor="middle" font-family="system-ui,-apple-system,sans-serif">24</text>
  <text x="322" y="369" fill="#8899B0" font-size="14" text-anchor="middle" font-family="system-ui,-apple-system,sans-serif">25</text>
  <text x="375" y="369" fill="#8899B0" font-size="14" text-anchor="middle" font-family="system-ui,-apple-system,sans-serif">26</text>

  <!-- Row 5: 27-30 -->
  <text x="55" y="425" fill="#8899B0" font-size="14" text-anchor="middle" font-family="system-ui,-apple-system,sans-serif">27</text>
  <text x="108" y="425" fill="#8899B0" font-size="14" text-anchor="middle" font-family="system-ui,-apple-system,sans-serif">28</text>
  <text x="162" y="425" fill="#8899B0" font-size="14" text-anchor="middle" font-family="system-ui,-apple-system,sans-serif">29</text>
  <text x="215" y="425" fill="#8899B0" font-size="14" text-anchor="middle" font-family="system-ui,-apple-system,sans-serif">30</text>

  <!-- Dot-Legende -->
  <rect x="28" y="438" width="374" height="26" rx="10" fill="#0E1520"/>
  <circle cx="46" cy="451" r="4" fill="#22C55E"/>
  <text x="56" y="455" fill="#465970" font-size="10" font-family="system-ui,-apple-system,sans-serif">Erledigt</text>
  <circle cx="113" cy="451" r="4" fill="#F59E0B"/>
  <text x="123" y="455" fill="#465970" font-size="10" font-family="system-ui,-apple-system,sans-serif">Teilweise</text>
  <circle cx="191" cy="451" r="4" fill="#EF4444"/>
  <text x="201" y="455" fill="#465970" font-size="10" font-family="system-ui,-apple-system,sans-serif">Nicht erledigt</text>
  <circle cx="282" cy="451" r="4" fill="#8B5CF6"/>
  <text x="292" y="455" fill="#465970" font-size="10" font-family="system-ui,-apple-system,sans-serif">Verschoben</text>
  <circle cx="359" cy="451" r="3" fill="#2966D8" fill-opacity="0.5"/>
  <text x="368" y="455" fill="#465970" font-size="10" font-family="system-ui,-apple-system,sans-serif">Geplant</text>

  <!-- Divider -->
  <line x1="28" y1="474" x2="402" y2="474" stroke="#1B3156" stroke-width="1"/>

  <!-- Monthly stats row -->
  <rect x="28" y="486" width="116" height="76" rx="16" fill="#122035"/>
  <text x="48" y="512" fill="#8899B0" font-size="11" font-family="system-ui,-apple-system,sans-serif">Aufgaben</text>
  <text x="48" y="542" fill="#F0F4FF" font-size="22" font-family="system-ui,-apple-system,sans-serif" font-weight="700">7</text>
  <text x="76" y="542" fill="#465970" font-size="13" font-family="system-ui,-apple-system,sans-serif">heute</text>

  <rect x="157" y="486" width="116" height="76" rx="16" fill="#122035"/>
  <text x="177" y="512" fill="#8899B0" font-size="11" font-family="system-ui,-apple-system,sans-serif">Streak</text>
  <text x="177" y="542" fill="#F0F4FF" font-size="22" font-family="system-ui,-apple-system,sans-serif" font-weight="700">9</text>
  <text x="205" y="542" fill="#465970" font-size="13" font-family="system-ui,-apple-system,sans-serif">Tage</text>

  <rect x="286" y="486" width="116" height="76" rx="16" fill="#122035"/>
  <text x="306" y="512" fill="#8899B0" font-size="11" font-family="system-ui,-apple-system,sans-serif">Ø Quote</text>
  <text x="306" y="542" fill="#2966D8" font-size="22" font-family="system-ui,-apple-system,sans-serif" font-weight="700">–</text>

  <!-- Month note -->
  <text x="28" y="594" fill="#F0F4FF" font-size="17" font-family="system-ui,-apple-system,sans-serif" font-weight="700">Monatsnotiz</text>
  <rect x="28" y="608" width="374" height="108" rx="20" fill="#122035"/>
  <text x="48" y="639" fill="#8899B0" font-size="13" font-family="system-ui,-apple-system,sans-serif">April startet stark. Routinen greifen gut,</text>
  <text x="48" y="661" fill="#8899B0" font-size="13" font-family="system-ui,-apple-system,sans-serif">Studienphasen brauchen noch mehr Tiefe.</text>
  <text x="48" y="683" fill="#8899B0" font-size="13" font-family="system-ui,-apple-system,sans-serif">Fokus auf Konsistenz über den ganzen Monat.</text>
  <rect x="48" y="698" width="2" height="12" rx="1" fill="#2966D8" fill-opacity="0.7"/>

  <!-- Recurring summary -->
  <rect x="28" y="734" width="374" height="76" rx="20" fill="#152840"/>
  <rect x="28" y="734" width="4" height="76" rx="2" fill="#2966D8"/>
  <text x="48" y="763" fill="#8899B0" font-size="13" font-family="system-ui,-apple-system,sans-serif">Wiederkehrende Aufgaben diesen Monat</text>
  <text x="48" y="790" fill="#F0F4FF" font-size="14" font-family="system-ui,-apple-system,sans-serif">Training  <tspan fill="#6BA3F5" font-weight="600">1×</tspan>    Lesen  <tspan fill="#6BA3F5" font-weight="600">1×</tspan>    Lernen  <tspan fill="#6BA3F5" font-weight="600">1×</tspan></text>

  <!-- ═══ BOTTOM NAV – 5 Items ═══ -->
  <rect x="0" y="856" width="430" height="76" fill="#070E1B"/>
  <line x1="0" y1="856" x2="430" y2="856" stroke="#1B3156" stroke-width="1"/>
  <rect x="160" y="914" width="110" height="4" rx="2" fill="#1B3156"/>

  <!-- Monat (x=43) AKTIV – 3×2 Raster -->
  <rect x="24" y="858" width="38" height="34" rx="20" fill="#2966D8" fill-opacity="0.2"/>
  <rect x="32" y="866" width="22" height="20" rx="3" stroke="#2966D8" stroke-width="1.5" fill="none"/>
  <line x1="37" y1="863" x2="37" y2="869" stroke="#2966D8" stroke-width="1.5" stroke-linecap="round"/>
  <line x1="49" y1="863" x2="49" y2="869" stroke="#2966D8" stroke-width="1.5" stroke-linecap="round"/>
  <line x1="32" y1="872" x2="54" y2="872" stroke="#2966D8" stroke-width="0.8"/>
  <circle cx="37" cy="877" r="1.4" fill="#2966D8"/><circle cx="43" cy="877" r="1.4" fill="#2966D8"/><circle cx="49" cy="877" r="1.4" fill="#2966D8"/>
  <circle cx="37" cy="882" r="1.4" fill="#2966D8"/><circle cx="43" cy="882" r="1.4" fill="#2966D8"/><circle cx="49" cy="882" r="1.4" fill="#2966D8"/>
  <text x="43" y="898" fill="#2966D8" font-size="9.5" text-anchor="middle" font-family="system-ui,-apple-system,sans-serif" font-weight="700">Monat</text>

  <!-- Woche (x=129) inaktiv – 7 Balken -->
  <rect x="112" y="876" width="3.5" height="9" rx="1.5" fill="#4A6080"/>
  <rect x="117" y="872" width="3.5" height="13" rx="1.5" fill="#4A6080"/>
  <rect x="122" y="874" width="3.5" height="11" rx="1.5" fill="#4A6080"/>
  <rect x="127" y="869" width="3.5" height="16" rx="1.5" fill="#4A6080"/>
  <rect x="132" y="873" width="3.5" height="12" rx="1.5" fill="#4A6080"/>
  <rect x="137" y="876" width="3.5" height="9" rx="1.5" fill="#4A6080"/>
  <rect x="142" y="878" width="3.5" height="7" rx="1.5" fill="#4A6080"/>
  <text x="129" y="898" fill="#4A6080" font-size="9.5" text-anchor="middle" font-family="system-ui,-apple-system,sans-serif">Woche</text>

  <!-- Tag (x=215) inaktiv -->
  <rect x="203" y="865" width="24" height="22" rx="4" stroke="#4A6080" stroke-width="1.5" fill="none"/>
  <line x1="203" y1="871" x2="227" y2="871" stroke="#4A6080" stroke-width="0.8"/>
  <rect x="208" y="875" width="10" height="9" rx="2.5" fill="#4A6080" fill-opacity="0.35"/>
  <text x="215" y="898" fill="#4A6080" font-size="9.5" text-anchor="middle" font-family="system-ui,-apple-system,sans-serif">Tag</text>

  <!-- Ziele (x=301) inaktiv – Flagge -->
  <line x1="291" y1="864" x2="291" y2="887" stroke="#4A6080" stroke-width="1.5" stroke-linecap="round"/>
  <path d="M291 864 L304 869 L291 874 Z" fill="#4A6080"/>
  <text x="301" y="898" fill="#4A6080" font-size="9.5" text-anchor="middle" font-family="system-ui,-apple-system,sans-serif">Ziele</text>

  <!-- Statistiken (x=387) inaktiv – 4 aufsteigende Balken -->
  <rect x="376" y="880" width="4" height="6" rx="1.5" fill="#4A6080"/>
  <rect x="382" y="875" width="4" height="11" rx="1.5" fill="#4A6080"/>
  <rect x="388" y="877" width="4" height="9" rx="1.5" fill="#4A6080"/>
  <rect x="394" y="872" width="4" height="14" rx="1.5" fill="#4A6080"/>
  <text x="387" y="898" fill="#4A6080" font-size="9.5" text-anchor="middle" font-family="system-ui,-apple-system,sans-serif">Statistik</text>

</svg>
