<?xml version="1.0" encoding="UTF-8"?>
<svg width="430" height="932" viewBox="0 0 430 932" fill="none" xmlns="http://www.w3.org/2000/svg">

  <rect width="430" height="932" rx="50" fill="#0B1929"/>
  <rect x="151" y="14" width="128" height="34" rx="17" fill="#060D18"/>

  <!-- Status bar -->
  <text x="34" y="37" fill="#F0F4FF" font-size="14" font-family="system-ui,-apple-system,sans-serif" font-weight="600">9:41</text>
  <path d="M348 33 Q353 27 358 33" stroke="#F0F4FF" stroke-width="1.5" fill="none" stroke-linecap="round"/>
  <path d="M344 37 Q353 22 362 37" stroke="#F0F4FF" stroke-width="1.5" fill="none" stroke-linecap="round"/>
  <circle cx="353" cy="39" r="2" fill="#F0F4FF"/>
  <rect x="370" y="26" width="26" height="13" rx="3" stroke="#F0F4FF" stroke-width="1.5" fill="none"/>
  <rect x="371.5" y="27.5" width="20" height="10" rx="2" fill="#F0F4FF"/>

  <!-- 3-Punkte-Menü -->
  <circle cx="393" cy="75" r="2.5" fill="#4A6080"/>
  <circle cx="401" cy="75" r="2.5" fill="#4A6080"/>
  <circle cx="409" cy="75" r="2.5" fill="#4A6080"/>

  <!-- Header -->
  <text x="28" y="82" fill="#8899B0" font-size="15" font-family="system-ui,-apple-system,sans-serif">April 2026</text>
  <text x="28" y="124" fill="#F0F4FF" font-size="38" font-family="system-ui,-apple-system,sans-serif" font-weight="700">Statistiken</text>

  <!-- Time range pills -->
  <rect x="28" y="138" width="60" height="28" rx="14" fill="#2966D8"/>
  <text x="58" y="156" fill="white" font-size="12" text-anchor="middle" font-family="system-ui,-apple-system,sans-serif" font-weight="600">Monat</text>
  <rect x="96" y="138" width="56" height="28" rx="14" fill="#122035"/>
  <text x="124" y="156" fill="#8899B0" font-size="12" text-anchor="middle" font-family="system-ui,-apple-system,sans-serif">Woche</text>
  <rect x="160" y="138" width="40" height="28" rx="14" fill="#122035"/>
  <text x="180" y="156" fill="#8899B0" font-size="12" text-anchor="middle" font-family="system-ui,-apple-system,sans-serif">Jahr</text>

  <!-- 2 stat cards -->
  <rect x="28" y="182" width="179" height="96" rx="20" fill="#122035"/>
  <text x="48" y="212" fill="#8899B0" font-size="13" font-family="system-ui,-apple-system,sans-serif">Erfüllungsquote</text>
  <text x="48" y="253" fill="#F0F4FF" font-size="36" font-family="system-ui,-apple-system,sans-serif" font-weight="700">81 %</text>

  <rect x="223" y="182" width="179" height="96" rx="20" fill="#122035"/>
  <text x="243" y="212" fill="#8899B0" font-size="13" font-family="system-ui,-apple-system,sans-serif">Aktive Tage</text>
  <text x="243" y="253" fill="#F0F4FF" font-size="36" font-family="system-ui,-apple-system,sans-serif" font-weight="700">24</text>

  <!-- Bar chart card -->
  <text x="28" y="314" fill="#F0F4FF" font-size="17" font-family="system-ui,-apple-system,sans-serif" font-weight="700">Geplant vs. Erledigt</text>
  <rect x="28" y="326" width="374" height="210" rx="20" fill="#122035"/>

  <!-- Legend -->
  <rect x="48" y="344" width="12" height="12" rx="6" fill="#2966D8"/>
  <text x="65" y="355" fill="#8899B0" font-size="12" font-family="system-ui,-apple-system,sans-serif">Erledigt</text>
  <rect x="140" y="344" width="12" height="12" rx="6" fill="#1B3156"/>
  <text x="157" y="355" fill="#8899B0" font-size="12" font-family="system-ui,-apple-system,sans-serif">Geplant</text>

  <!-- Grid baseline -->
  <line x1="48" y1="498" x2="382" y2="498" stroke="#1B3156" stroke-width="1"/>

  <!-- W1 -->
  <rect x="64" y="408" width="22" height="90" rx="11" fill="#2966D8"/>
  <rect x="88" y="388" width="22" height="110" rx="11" fill="#1B3156"/>
  <text x="82" y="516" fill="#465970" font-size="12" text-anchor="middle" font-family="system-ui,-apple-system,sans-serif">W1</text>

  <!-- W2 -->
  <rect x="144" y="378" width="22" height="120" rx="11" fill="#2966D8"/>
  <rect x="168" y="358" width="22" height="140" rx="11" fill="#1B3156"/>
  <text x="162" y="516" fill="#465970" font-size="12" text-anchor="middle" font-family="system-ui,-apple-system,sans-serif">W2</text>

  <!-- W3 -->
  <rect x="224" y="360" width="22" height="138" rx="11" fill="#2966D8"/>
  <rect x="248" y="348" width="22" height="150" rx="11" fill="#1B3156"/>
  <text x="242" y="516" fill="#465970" font-size="12" text-anchor="middle" font-family="system-ui,-apple-system,sans-serif">W3</text>

  <!-- W4 (partial) -->
  <rect x="304" y="476" width="22" height="22" rx="11" fill="#2966D8" fill-opacity="0.5"/>
  <rect x="328" y="470" width="22" height="28" rx="11" fill="#1B3156"/>
  <text x="322" y="516" fill="#465970" font-size="12" text-anchor="middle" font-family="system-ui,-apple-system,sans-serif">W4</text>

  <!-- Category bars -->
  <text x="28" y="568" fill="#F0F4FF" font-size="17" font-family="system-ui,-apple-system,sans-serif" font-weight="700">Kategorien</text>
  <rect x="28" y="580" width="374" height="166" rx="20" fill="#122035"/>

  <!-- Studium -->
  <text x="48" y="610" fill="#F0F4FF" font-size="13.5" font-family="system-ui,-apple-system,sans-serif">Studium</text>
  <rect x="180" y="598" width="182" height="14" rx="7" fill="#1B3156"/>
  <rect x="180" y="598" width="138" height="14" rx="7" fill="#2966D8"/>
  <text x="368" y="610" fill="#6BA3F5" font-size="11" text-anchor="end" font-family="system-ui,-apple-system,sans-serif">76%</text>

  <!-- Gesundheit -->
  <text x="48" y="648" fill="#F0F4FF" font-size="13.5" font-family="system-ui,-apple-system,sans-serif">Gesundheit</text>
  <rect x="180" y="636" width="182" height="14" rx="7" fill="#1B3156"/>
  <rect x="180" y="636" width="160" height="14" rx="7" fill="#22C55E"/>
  <text x="368" y="648" fill="#22C55E" font-size="11" text-anchor="end" font-family="system-ui,-apple-system,sans-serif">88%</text>

  <!-- Haushalt -->
  <text x="48" y="686" fill="#F0F4FF" font-size="13.5" font-family="system-ui,-apple-system,sans-serif">Haushalt</text>
  <rect x="180" y="674" width="182" height="14" rx="7" fill="#1B3156"/>
  <rect x="180" y="674" width="100" height="14" rx="7" fill="#F59E0B"/>
  <text x="368" y="686" fill="#F59E0B" font-size="11" text-anchor="end" font-family="system-ui,-apple-system,sans-serif">55%</text>

  <!-- Freizeit -->
  <text x="48" y="724" fill="#F0F4FF" font-size="13.5" font-family="system-ui,-apple-system,sans-serif">Freizeit</text>
  <rect x="180" y="712" width="182" height="14" rx="7" fill="#1B3156"/>
  <rect x="180" y="712" width="149" height="14" rx="7" fill="#6BA3F5"/>
  <text x="368" y="724" fill="#6BA3F5" font-size="11" text-anchor="end" font-family="system-ui,-apple-system,sans-serif">82%</text>

  <!-- Insight card -->
  <rect x="28" y="762" width="374" height="76" rx="20" fill="#152840"/>
  <rect x="28" y="762" width="4" height="76" rx="2" fill="#2966D8"/>
  <text x="48" y="790" fill="#8899B0" font-size="12" font-family="system-ui,-apple-system,sans-serif">Erkenntnis des Monats</text>
  <text x="48" y="814" fill="#F0F4FF" font-size="13" font-family="system-ui,-apple-system,sans-serif">Beste Woche: KW 3 · Gesundheit läuft konstant.</text>

  <!-- ═══ BOTTOM NAV – 5 Items ═══ -->
  <rect x="0" y="856" width="430" height="76" fill="#070E1B"/>
  <line x1="0" y1="856" x2="430" y2="856" stroke="#1B3156" stroke-width="1"/>
  <rect x="160" y="914" width="110" height="4" rx="2" fill="#1B3156"/>

  <!-- Monat (x=43) inaktiv -->
  <rect x="32" y="866" width="22" height="20" rx="3" stroke="#4A6080" stroke-width="1.5" fill="none"/>
  <line x1="37" y1="863" x2="37" y2="869" stroke="#4A6080" stroke-width="1.5" stroke-linecap="round"/>
  <line x1="49" y1="863" x2="49" y2="869" stroke="#4A6080" stroke-width="1.5" stroke-linecap="round"/>
  <line x1="32" y1="872" x2="54" y2="872" stroke="#4A6080" stroke-width="0.8"/>
  <circle cx="37" cy="877" r="1.4" fill="#4A6080"/><circle cx="43" cy="877" r="1.4" fill="#4A6080"/><circle cx="49" cy="877" r="1.4" fill="#4A6080"/>
  <circle cx="37" cy="882" r="1.4" fill="#4A6080"/><circle cx="43" cy="882" r="1.4" fill="#4A6080"/><circle cx="49" cy="882" r="1.4" fill="#4A6080"/>
  <text x="43" y="898" fill="#4A6080" font-size="9.5" text-anchor="middle" font-family="system-ui,-apple-system,sans-serif">Monat</text>

  <!-- Woche (x=129) inaktiv – 7 Balken -->
  <rect x="112" y="876" width="3.5" height="9" rx="1.5" fill="#4A6080"/>
  <rect x="117" y="872" width="3.5" height="13" rx="1.5" fill="#4A6080"/>
  <rect x="122" y="874" width="3.5" height="11" rx="1.5" fill="#4A6080"/>
  <rect x="127" y="869" width="3.5" height="16" rx="1.5" fill="#4A6080"/>
  <rect x="132" y="873" width="3.5" height="12" rx="1.5" fill="#4A6080"/>
  <rect x="137" y="876" width="3.5" height="9" rx="1.5" fill="#4A6080"/>
  <rect x="142" y="878" width="3.5" height="7" rx="1.5" fill="#4A6080"/>
  <text x="129" y="898" fill="#4A6080" font-size="9.5" text-anchor="middle" font-family="system-ui,-apple-system,sans-serif">Woche</text>

  <!-- Tag (x=215) inaktiv -->
  <rect x="203" y="865" width="24" height="22" rx="4" stroke="#4A6080" stroke-width="1.5" fill="none"/>
  <line x1="203" y1="871" x2="227" y2="871" stroke="#4A6080" stroke-width="0.8"/>
  <rect x="208" y="875" width="10" height="9" rx="2.5" fill="#4A6080" fill-opacity="0.35"/>
  <text x="215" y="898" fill="#4A6080" font-size="9.5" text-anchor="middle" font-family="system-ui,-apple-system,sans-serif">Tag</text>

  <!-- Ziele (x=301) inaktiv – Flagge -->
  <line x1="291" y1="864" x2="291" y2="887" stroke="#4A6080" stroke-width="1.5" stroke-linecap="round"/>
  <path d="M291 864 L304 869 L291 874 Z" fill="#4A6080"/>
  <text x="301" y="898" fill="#4A6080" font-size="9.5" text-anchor="middle" font-family="system-ui,-apple-system,sans-serif">Ziele</text>

  <!-- Statistiken (x=387) AKTIV – 4 aufsteigende Balken -->
  <rect x="368" y="858" width="38" height="34" rx="20" fill="#2966D8" fill-opacity="0.2"/>
  <rect x="376" y="880" width="4" height="6" rx="1.5" fill="#2966D8"/>
  <rect x="382" y="875" width="4" height="11" rx="1.5" fill="#2966D8"/>
  <rect x="388" y="877" width="4" height="9" rx="1.5" fill="#2966D8"/>
  <rect x="394" y="872" width="4" height="14" rx="1.5" fill="#2966D8"/>
  <text x="387" y="898" fill="#2966D8" font-size="9.5" text-anchor="middle" font-family="system-ui,-apple-system,sans-serif" font-weight="700">Statistik</text>

</svg>
