<?xml version="1.0" encoding="UTF-8"?>
<svg width="430" height="932" viewBox="0 0 430 932" fill="none" xmlns="http://www.w3.org/2000/svg">

  <rect width="430" height="932" rx="50" fill="#0B1929"/>
  <rect x="151" y="14" width="128" height="34" rx="17" fill="#060D18"/>

  <!-- Status bar -->
  <text x="34" y="37" fill="#F0F4FF" font-size="14" font-family="system-ui,-apple-system,sans-serif" font-weight="600">9:41</text>
  <path d="M348 33 Q353 27 358 33" stroke="#F0F4FF" stroke-width="1.5" fill="none" stroke-linecap="round"/>
  <path d="M344 37 Q353 22 362 37" stroke="#F0F4FF" stroke-width="1.5" fill="none" stroke-linecap="round"/>
  <circle cx="353" cy="39" r="2" fill="#F0F4FF"/>
  <rect x="370" y="26" width="26" height="13" rx="3" stroke="#F0F4FF" stroke-width="1.5" fill="none"/>
  <rect x="371.5" y="27.5" width="20" height="10" rx="2" fill="#F0F4FF"/>

  <!-- 3-Punkte-Menü -->
  <circle cx="393" cy="75" r="2.5" fill="#4A6080"/>
  <circle cx="401" cy="75" r="2.5" fill="#4A6080"/>
  <circle cx="409" cy="75" r="2.5" fill="#4A6080"/>

  <!-- Header -->
  <text x="28" y="82" fill="#8899B0" font-size="15" font-family="system-ui,-apple-system,sans-serif">KW 14 · März – April 2026</text>
  <text x="28" y="124" fill="#F0F4FF" font-size="38" font-family="system-ui,-apple-system,sans-serif" font-weight="700">Diese Woche</text>

  <!-- Week success card -->
  <rect x="28" y="142" width="374" height="90" rx="20" fill="#122035"/>
  <rect x="28" y="142" width="4" height="90" rx="2" fill="#2966D8"/>
  <text x="48" y="172" fill="#8899B0" font-size="13" font-family="system-ui,-apple-system,sans-serif">Wochenerfolg</text>
  <text x="48" y="207" fill="#F0F4FF" font-size="34" font-family="system-ui,-apple-system,sans-serif" font-weight="700">73 %</text>
  <text x="150" y="207" fill="#8899B0" font-size="14" font-family="system-ui,-apple-system,sans-serif">  11 von 15 erledigt</text>
  <rect x="280" y="186" width="108" height="6" rx="3" fill="#1B3156"/>
  <rect x="280" y="186" width="79" height="6" rx="3" fill="#2966D8"/>

  <!-- Day rows -->

  <!-- Mo 30. März – 5/6 (83%) = TEILWEISE → amber -->
  <rect x="28" y="252" width="374" height="74" rx="16" fill="#131000"/>
  <rect x="28" y="252" width="4" height="74" rx="2" fill="#F59E0B"/>
  <text x="48" y="278" fill="#F0F4FF" font-size="15" font-family="system-ui,-apple-system,sans-serif" font-weight="600">Mo</text>
  <text x="82" y="278" fill="#465970" font-size="13" font-family="system-ui,-apple-system,sans-serif">30. März</text>
  <text x="48" y="302" fill="#8899B0" font-size="12" font-family="system-ui,-apple-system,sans-serif">5 von 6 erledigt</text>
  <!-- Tagsstatus-Indikator: amber (teilweise) -->
  <rect x="220" y="281" width="164" height="8" rx="4" fill="#1B3156"/>
  <rect x="220" y="281" width="136" height="8" rx="4" fill="#F59E0B"/>
  <!-- Status-Dot rechts unten -->
  <circle cx="382" cy="308" r="5" fill="#F59E0B"/>
  <line x1="379" y1="308" x2="381" y2="310" stroke="white" stroke-width="1.5" stroke-linecap="round"/>
  <line x1="381" y1="310" x2="385" y2="305" stroke="white" stroke-width="1.5" stroke-linecap="round"/>

  <!-- Di 31. März – 7/7 = VOLLSTÄNDIG → grün -->
  <rect x="28" y="334" width="374" height="74" rx="16" fill="#0D1F14"/>
  <rect x="28" y="334" width="4" height="74" rx="2" fill="#22C55E"/>
  <text x="48" y="360" fill="#F0F4FF" font-size="15" font-family="system-ui,-apple-system,sans-serif" font-weight="600">Di</text>
  <text x="78" y="360" fill="#465970" font-size="13" font-family="system-ui,-apple-system,sans-serif">31. März</text>
  <text x="48" y="384" fill="#8899B0" font-size="12" font-family="system-ui,-apple-system,sans-serif">Alles geschafft  🎯</text>
  <rect x="220" y="363" width="164" height="8" rx="4" fill="#1B3156"/>
  <rect x="220" y="363" width="164" height="8" rx="4" fill="#22C55E"/>
  <!-- Status-Dot: grün ✓ -->
  <circle cx="382" cy="390" r="5" fill="#22C55E"/>
  <path d="M379 390L381 392.5L386 387" stroke="white" stroke-width="1.5" stroke-linecap="round" stroke-linejoin="round"/>

  <!-- Mi 1. April – HEUTE – 4/7 in progress (blau) -->
  <rect x="28" y="416" width="374" height="80" rx="16" fill="#152840"/>
  <rect x="28" y="416" width="374" height="80" rx="16" stroke="#2966D8" stroke-width="1" stroke-opacity="0.5"/>
  <rect x="28" y="416" width="4" height="80" rx="2" fill="#2966D8"/>
  <text x="48" y="443" fill="#F0F4FF" font-size="15" font-family="system-ui,-apple-system,sans-serif" font-weight="600">Mi</text>
  <text x="78" y="443" fill="#465970" font-size="13" font-family="system-ui,-apple-system,sans-serif">1. April</text>
  <rect x="120" y="430" width="48" height="20" rx="10" fill="#2966D8"/>
  <text x="144" y="444" fill="white" font-size="10.5" text-anchor="middle" font-family="system-ui,-apple-system,sans-serif" font-weight="600">Heute</text>
  <text x="48" y="468" fill="#8899B0" font-size="12" font-family="system-ui,-apple-system,sans-serif">4 von 7 erledigt · läuft noch</text>
  <rect x="220" y="447" width="164" height="8" rx="4" fill="#1B3156"/>
  <rect x="220" y="447" width="93" height="8" rx="4" fill="#2966D8"/>

  <!-- Do 2. April – geplant -->
  <rect x="28" y="504" width="374" height="74" rx="16" fill="#0E1A2B"/>
  <rect x="28" y="504" width="4" height="74" rx="2" fill="#364d62"/>
  <text x="48" y="530" fill="#8899B0" font-size="15" font-family="system-ui,-apple-system,sans-serif" font-weight="600">Do</text>
  <text x="78" y="530" fill="#465970" font-size="13" font-family="system-ui,-apple-system,sans-serif">2. April</text>
  <text x="48" y="554" fill="#465970" font-size="12" font-family="system-ui,-apple-system,sans-serif">4 Aufgaben geplant</text>
  <rect x="220" y="533" width="164" height="8" rx="4" fill="#1B3156"/>
  <rect x="220" y="533" width="28" height="8" rx="4" fill="#364d62"/>

  <!-- Fr 3. April – geplant -->
  <rect x="28" y="586" width="374" height="74" rx="16" fill="#0E1A2B"/>
  <rect x="28" y="586" width="4" height="74" rx="2" fill="#364d62"/>
  <text x="48" y="612" fill="#8899B0" font-size="15" font-family="system-ui,-apple-system,sans-serif" font-weight="600">Fr</text>
  <text x="72" y="612" fill="#465970" font-size="13" font-family="system-ui,-apple-system,sans-serif">3. April</text>
  <text x="48" y="636" fill="#465970" font-size="12" font-family="system-ui,-apple-system,sans-serif">3 Aufgaben geplant</text>
  <rect x="220" y="615" width="164" height="8" rx="4" fill="#1B3156"/>
  <rect x="220" y="615" width="20" height="8" rx="4" fill="#364d62"/>

  <!-- Week note card -->
  <rect x="28" y="678" width="374" height="80" rx="20" fill="#122035"/>
  <text x="48" y="706" fill="#8899B0" font-size="13" font-family="system-ui,-apple-system,sans-serif">Wochennotiz</text>
  <text x="48" y="730" fill="#F0F4FF" font-size="13.5" font-family="system-ui,-apple-system,sans-serif">Dienstag war der stärkste Tag. Fokus halten.</text>

  <!-- Streak -->
  <rect x="28" y="776" width="180" height="62" rx="16" fill="#122035"/>
  <text x="48" y="800" fill="#8899B0" font-size="12" font-family="system-ui,-apple-system,sans-serif">Serie</text>
  <text x="48" y="824" fill="#F0F4FF" font-size="15" font-family="system-ui,-apple-system,sans-serif" font-weight="600">Training  <tspan fill="#6BA3F5">4 Wo.</tspan></text>
  <rect x="222" y="776" width="180" height="62" rx="16" fill="#122035"/>
  <text x="242" y="800" fill="#8899B0" font-size="12" font-family="system-ui,-apple-system,sans-serif">Lesen</text>
  <text x="242" y="824" fill="#F0F4FF" font-size="15" font-family="system-ui,-apple-system,sans-serif" font-weight="600">Streak  <tspan fill="#6BA3F5">9 Tage</tspan></text>

  <!-- ═══ BOTTOM NAV – 5 Items ═══ -->
  <rect x="0" y="856" width="430" height="76" fill="#070E1B"/>
  <line x1="0" y1="856" x2="430" y2="856" stroke="#1B3156" stroke-width="1"/>
  <rect x="160" y="914" width="110" height="4" rx="2" fill="#1B3156"/>

  <!-- Monat (x=43) inaktiv -->
  <rect x="32" y="866" width="22" height="20" rx="3" stroke="#4A6080" stroke-width="1.5" fill="none"/>
  <line x1="37" y1="863" x2="37" y2="869" stroke="#4A6080" stroke-width="1.5" stroke-linecap="round"/>
  <line x1="49" y1="863" x2="49" y2="869" stroke="#4A6080" stroke-width="1.5" stroke-linecap="round"/>
  <line x1="32" y1="872" x2="54" y2="872" stroke="#4A6080" stroke-width="0.8"/>
  <circle cx="37" cy="877" r="1.4" fill="#4A6080"/><circle cx="43" cy="877" r="1.4" fill="#4A6080"/><circle cx="49" cy="877" r="1.4" fill="#4A6080"/>
  <circle cx="37" cy="882" r="1.4" fill="#4A6080"/><circle cx="43" cy="882" r="1.4" fill="#4A6080"/><circle cx="49" cy="882" r="1.4" fill="#4A6080"/>
  <text x="43" y="898" fill="#4A6080" font-size="9.5" text-anchor="middle" font-family="system-ui,-apple-system,sans-serif">Monat</text>

  <!-- Woche (x=129) AKTIV – 7 Balken -->
  <rect x="110" y="858" width="38" height="34" rx="20" fill="#2966D8" fill-opacity="0.2"/>
  <rect x="112" y="876" width="3.5" height="9" rx="1.5" fill="#2966D8"/>
  <rect x="117" y="872" width="3.5" height="13" rx="1.5" fill="#2966D8"/>
  <rect x="122" y="874" width="3.5" height="11" rx="1.5" fill="#2966D8"/>
  <rect x="127" y="869" width="3.5" height="16" rx="1.5" fill="#2966D8"/>
  <rect x="132" y="873" width="3.5" height="12" rx="1.5" fill="#2966D8"/>
  <rect x="137" y="876" width="3.5" height="9" rx="1.5" fill="#2966D8"/>
  <rect x="142" y="878" width="3.5" height="7" rx="1.5" fill="#2966D8"/>
  <text x="129" y="898" fill="#2966D8" font-size="9.5" text-anchor="middle" font-family="system-ui,-apple-system,sans-serif" font-weight="700">Woche</text>

  <!-- Tag (x=215) inaktiv -->
  <rect x="203" y="865" width="24" height="22" rx="4" stroke="#4A6080" stroke-width="1.5" fill="none"/>
  <line x1="203" y1="871" x2="227" y2="871" stroke="#4A6080" stroke-width="0.8"/>
  <rect x="208" y="875" width="10" height="9" rx="2.5" fill="#4A6080" fill-opacity="0.35"/>
  <text x="215" y="898" fill="#4A6080" font-size="9.5" text-anchor="middle" font-family="system-ui,-apple-system,sans-serif">Tag</text>

  <!-- Ziele (x=301) inaktiv – Flagge -->
  <line x1="291" y1="864" x2="291" y2="887" stroke="#4A6080" stroke-width="1.5" stroke-linecap="round"/>
  <path d="M291 864 L304 869 L291 874 Z" fill="#4A6080"/>
  <text x="301" y="898" fill="#4A6080" font-size="9.5" text-anchor="middle" font-family="system-ui,-apple-system,sans-serif">Ziele</text>

  <!-- Statistiken (x=387) inaktiv – 4 aufsteigende Balken -->
  <rect x="376" y="880" width="4" height="6" rx="1.5" fill="#4A6080"/>
  <rect x="382" y="875" width="4" height="11" rx="1.5" fill="#4A6080"/>
  <rect x="388" y="877" width="4" height="9" rx="1.5" fill="#4A6080"/>
  <rect x="394" y="872" width="4" height="14" rx="1.5" fill="#4A6080"/>
  <text x="387" y="898" fill="#4A6080" font-size="9.5" text-anchor="middle" font-family="system-ui,-apple-system,sans-serif">Statistik</text>

</svg>
